<svg width="150" height="150" viewBox="0 0 150 150" fill="none" xmlns="http://www.w3.org/2000/svg">
<path fill-rule="evenodd" clip-rule="evenodd" d="M94.8651 15.3222C98.4087 15.3222 101.55 17.98 102.677 21.8457C103.805 25.7115 110.409 49.631 110.409 49.631V97.1477H86.4893L86.9725 15.2417H94.8651V15.3222Z" fill="url(#paint0_linear_1724_84)"/>
<path d="M129.98 52.4496C129.98 50.7583 128.611 49.4697 127 49.4697H112.906C103 49.4697 94.9463 57.5234 94.9463 67.4295V97.2281H112.02C121.926 97.2281 129.98 89.1744 129.98 79.2684V52.4496Z" fill="url(#paint1_linear_1724_84)"/>
<path fill-rule="evenodd" clip-rule="evenodd" d="M94.8661 15.3218C92.1278 15.3218 89.9533 17.4963 89.9533 20.2345L89.4701 110.677C89.4701 123.886 78.7587 134.597 65.5507 134.597H22.1413C20.0473 134.597 18.6782 132.584 19.3225 130.651L54.1144 31.3486C57.497 21.7647 66.5171 15.3218 76.6648 15.3218H94.9466H94.8661Z" fill="url(#paint2_linear_1724_84)"/>
<defs>
<linearGradient id="paint0_linear_1724_84" x1="104.852" y1="98.9196" x2="84.7175" y2="18.3021" gradientUnits="userSpaceOnUse">
<stop stop-color="#712575"/>
<stop offset="0.09" stop-color="#9A2884"/>
<stop offset="0.18" stop-color="#BF2C92"/>
<stop offset="0.27" stop-color="#DA2E9C"/>
<stop offset="0.34" stop-color="#EB30A2"/>
<stop offset="0.4" stop-color="#F131A5"/>
<stop offset="0.5" stop-color="#EC30A3"/>
<stop offset="0.61" stop-color="#DF2F9E"/>
<stop offset="0.72" stop-color="#C92D96"/>
<stop offset="0.83" stop-color="#AA2A8A"/>
<stop offset="0.95" stop-color="#83267C"/>
<stop offset="1" stop-color="#712575"/>
</linearGradient>
<linearGradient id="paint1_linear_1724_84" x1="112.503" y1="17.0133" x2="112.503" y2="130.731" gradientUnits="userSpaceOnUse">
<stop stop-color="#DA7ED0"/>
<stop offset="0.08" stop-color="#B17BD5"/>
<stop offset="0.19" stop-color="#8778DB"/>
<stop offset="0.3" stop-color="#6276E1"/>
<stop offset="0.41" stop-color="#4574E5"/>
<stop offset="0.54" stop-color="#2E72E8"/>
<stop offset="0.67" stop-color="#1D71EB"/>
<stop offset="0.81" stop-color="#1471EC"/>
<stop offset="1" stop-color="#1171ED"/>
</linearGradient>
<linearGradient id="paint2_linear_1724_84" x1="105.658" y1="19.5902" x2="30.2755" y2="140.476" gradientUnits="userSpaceOnUse">
<stop stop-color="#DA7ED0"/>
<stop offset="0.05" stop-color="#B77BD4"/>
<stop offset="0.11" stop-color="#9079DA"/>
<stop offset="0.18" stop-color="#6E77DF"/>
<stop offset="0.25" stop-color="#5175E3"/>
<stop offset="0.33" stop-color="#3973E7"/>
<stop offset="0.42" stop-color="#2772E9"/>
<stop offset="0.54" stop-color="#1A71EB"/>
<stop offset="0.68" stop-color="#1371EC"/>
<stop offset="1" stop-color="#1171ED"/>
</linearGradient>
</defs>
</svg>
