<svg width="150" height="150" viewBox="0 0 150 150" fill="none" xmlns="http://www.w3.org/2000/svg">
<g clip-path="url(#clip0_1718_82)">
<mask id="mask0_1718_82" style="mask-type:alpha" maskUnits="userSpaceOnUse" x="15" y="15" width="120" height="120">
<path d="M75 135C108.137 135 135 108.137 135 75C135 41.8629 108.137 15 75 15C41.8629 15 15 41.8629 15 75C15 108.137 41.8629 135 75 135Z" fill="black"/>
</mask>
<g mask="url(#mask0_1718_82)">
<path d="M75 135C108.137 135 135 108.137 135 75C135 41.8629 108.137 15 75 15C41.8629 15 15 41.8629 15 75C15 108.137 41.8629 135 75 135Z" fill="black"/>
<path d="M114.672 120.013L61.0947 51H51V98.98H59.0757V61.2557L108.333 124.897C110.555 123.409 112.673 121.777 114.672 120.013Z" fill="url(#paint0_linear_1718_82)"/>
<path d="M99.667 51H91.667V99H99.667V51Z" fill="url(#paint1_linear_1718_82)"/>
</g>
</g>
<defs>
<linearGradient id="paint0_linear_1718_82" x1="87.6667" y1="92.6667" x2="111.333" y2="122" gradientUnits="userSpaceOnUse">
<stop stop-color="white"/>
<stop offset="1" stop-color="white" stop-opacity="0"/>
</linearGradient>
<linearGradient id="paint1_linear_1718_82" x1="95.667" y1="51" x2="95.533" y2="86.25" gradientUnits="userSpaceOnUse">
<stop stop-color="white"/>
<stop offset="1" stop-color="white" stop-opacity="0"/>
</linearGradient>
<clipPath id="clip0_1718_82">
<rect width="120" height="120" fill="white" transform="translate(15 15)"/>
</clipPath>
</defs>
</svg>
