<svg width="150" height="150" viewBox="0 0 150 150" fill="none" xmlns="http://www.w3.org/2000/svg">
<mask id="mask0_1718_64" style="mask-type:luminance" maskUnits="userSpaceOnUse" x="0" y="29" width="150" height="90">
<path d="M0 29H150V119H0V29Z" fill="white"/>
</mask>
<g mask="url(#mask0_1718_64)">
<path fill-rule="evenodd" clip-rule="evenodd" d="M75 29C55 29 42.5 39 37.5 59C45 49 53.75 45.25 63.75 47.75C69.4556 49.175 73.5333 53.3167 78.0472 57.8972C85.4 65.3611 93.9111 74 112.5 74C132.5 74 145 64 150 44C142.5 54 133.75 57.75 123.75 55.25C118.044 53.825 113.967 49.6833 109.453 45.1028C102.1 37.6389 93.5889 29 75 29ZM37.5 74C17.5 74 5 84 0 104C7.5 94 16.25 90.25 26.25 92.75C31.9556 94.1778 36.0333 98.3167 40.5472 102.897C47.9 110.361 56.4111 119 75 119C95 119 107.5 109 112.5 89C105 99 96.25 102.75 86.25 100.25C80.5444 98.825 76.4667 94.6833 71.9528 90.1028C64.6 82.6389 56.0889 74 37.5 74Z" fill="#38BDF8"/>
</g>
</svg>
