<svg width="150" height="150" viewBox="0 0 150 150" fill="none" xmlns="http://www.w3.org/2000/svg">
<g clip-path="url(#clip0_1718_73)">
<path d="M123.281 15H26.7188C20.2467 15 15 20.2467 15 26.7188V123.281C15 129.753 20.2467 135 26.7188 135H123.281C129.753 135 135 129.753 135 123.281V26.7188C135 20.2467 129.753 15 123.281 15Z" fill="#3178C6"/>
<path d="M123.281 15H26.7188C20.2467 15 15 20.2467 15 26.7188V123.281C15 129.753 20.2467 135 26.7188 135H123.281C129.753 135 135 129.753 135 123.281V26.7188C135 20.2467 129.753 15 123.281 15Z" fill="#3178C6"/>
<path fill-rule="evenodd" clip-rule="evenodd" d="M89.2826 110.49V122.223C91.1899 123.201 93.4458 123.934 96.0502 124.423C98.6545 124.912 101.399 125.156 104.285 125.156C107.097 125.156 109.769 124.887 112.3 124.35C114.831 123.812 117.05 122.926 118.957 121.691C120.865 120.457 122.375 118.844 123.487 116.851C124.6 114.859 125.156 112.397 125.156 109.463C125.156 107.337 124.838 105.473 124.203 103.872C123.567 102.271 122.65 100.847 121.451 99.6005C120.253 98.3538 118.817 97.2354 117.142 96.2454C115.466 95.2554 113.577 94.3205 111.474 93.4406C109.934 92.805 108.552 92.1879 107.329 91.5891C106.107 90.99 105.067 90.379 104.212 89.7558C103.356 89.1323 102.695 88.4723 102.231 87.7758C101.766 87.079 101.534 86.2908 101.534 85.4107C101.534 84.6042 101.742 83.877 102.158 83.2291C102.573 82.5813 103.16 82.0254 103.918 81.5609C104.676 81.0966 105.605 80.7359 106.706 80.4792C107.806 80.2226 109.029 80.0944 110.374 80.0944C111.352 80.0944 112.385 80.1677 113.473 80.3142C114.562 80.4609 115.656 80.6871 116.756 80.9925C117.857 81.2981 118.927 81.6832 119.966 82.1475C121.005 82.612 121.965 83.1497 122.845 83.7609V72.7978C121.06 72.1134 119.11 71.6062 116.995 71.2762C114.88 70.9462 112.452 70.7812 109.714 70.7812C106.926 70.7812 104.285 71.0808 101.791 71.6796C99.2965 72.2784 97.1018 73.2134 95.2064 74.4844C93.3112 75.7556 91.8136 77.3749 90.7132 79.3427C89.6128 81.3103 89.0625 83.663 89.0625 86.4007C89.0625 89.8962 90.0712 92.8784 92.0887 95.3473C94.106 97.8159 97.1688 99.9059 101.277 101.617C102.891 102.277 104.395 102.925 105.789 103.56C107.183 104.196 108.387 104.856 109.402 105.54C110.417 106.225 111.217 106.97 111.805 107.777C112.391 108.583 112.685 109.5 112.685 110.527C112.685 111.285 112.501 111.987 112.135 112.635C111.768 113.283 111.211 113.845 110.466 114.322C109.72 114.798 108.791 115.171 107.678 115.44C106.565 115.709 105.263 115.843 103.771 115.843C101.228 115.843 98.7096 115.397 96.2152 114.505C93.7209 113.613 91.41 112.275 89.2826 110.49ZM69.5578 81.5817H84.6094V71.9531H42.6562V81.5817H57.6342V124.453H69.5578V81.5817Z" fill="white"/>
</g>
<defs>
<clipPath id="clip0_1718_73">
<rect width="120" height="120" fill="white" transform="translate(15 15)"/>
</clipPath>
</defs>
</svg>
